<?xml version="1.0" standalone="no"?>
<!DOCTYPE svg PUBLIC "-//W3C//DTD SVG 20010904//EN"
 "http://www.w3.org/TR/2001/REC-SVG-20010904/DTD/svg10.dtd">
<svg version="1.0" xmlns="http://www.w3.org/2000/svg"
 width="512.000000pt" height="512.000000pt" viewBox="0 0 512.000000 512.000000"
 preserveAspectRatio="xMidYMid meet">
<metadata>
Created by potrace 1.15, written by Peter Selinger 2001-2017
</metadata>
<g transform="translate(0.000000,512.000000) scale(0.100000,-0.100000)"
fill="#000000" stroke="none">
<path d="M2515 5099 c-4 -6 -34 -10 -68 -9 -34 1 -72 -1 -84 -5 -16 -5 -23 -3
-23 5 0 10 -3 10 -15 0 -8 -7 -24 -10 -35 -7 -11 3 -20 1 -20 -4 0 -5 -18 -8
-40 -6 -22 2 -40 -1 -40 -6 0 -5 -16 -7 -35 -5 -19 2 -35 1 -35 -2 0 -4 -26
-12 -57 -18 -32 -6 -67 -13 -78 -16 -379 -97 -703 -260 -1001 -504 -415 -340
-707 -802 -858 -1357 -2 -5 -6 -27 -11 -47 -4 -21 -11 -38 -17 -38 -5 0 -6 -5
-3 -10 7 -11 -15 -161 -25 -170 -3 -3 -6 -23 -6 -45 -1 -22 -4 -67 -8 -100 -3
-33 -6 -85 -5 -117 0 -31 -5 -59 -11 -63 -13 -8 -13 -102 1 -110 5 -4 10 -35
10 -68 0 -111 4 -177 11 -177 5 0 7 -18 5 -40 -2 -22 0 -41 4 -42 7 -3 20 -92
23 -150 0 -16 4 -28 7 -28 4 0 10 -17 14 -37 10 -49 9 -43 40 -147 54 -185
142 -394 226 -538 22 -37 37 -73 34 -78 -4 -6 -2 -9 3 -8 6 2 34 -33 62 -77
78 -119 180 -246 192 -239 6 4 6 9 1 13 -10 7 -13 151 -3 151 4 0 5 13 2 30
-2 16 0 30 4 30 5 0 9 15 10 34 0 37 57 163 105 232 137 199 373 372 679 497
149 61 378 128 485 141 22 3 54 9 70 14 17 4 45 8 63 8 l32 -1 0 240 0 241
-29 17 c-42 25 -148 142 -198 219 -77 118 -156 327 -149 392 2 14 -1 26 -6 26
-6 0 -8 18 -6 40 2 22 1 40 -2 40 -3 0 -6 47 -6 105 0 58 3 105 6 105 3 0 4
18 2 40 -2 22 0 40 4 40 5 0 9 15 10 33 3 95 69 265 152 392 106 163 270 290
447 345 143 45 376 29 504 -34 114 -57 142 -77 236 -171 105 -105 158 -184
214 -315 62 -144 75 -222 73 -440 -1 -197 -2 -210 -14 -210 -5 0 -6 -5 -3 -10
9 -15 -12 -101 -47 -190 -49 -123 -116 -227 -210 -325 l-88 -90 0 -242 0 -243
30 0 c37 0 33 1 72 -11 18 -5 53 -12 77 -15 53 -6 267 -61 293 -75 10 -5 18
-7 18 -5 0 3 30 -6 68 -20 432 -161 707 -371 840 -642 25 -52 46 -109 46 -128
1 -19 4 -34 7 -34 13 0 18 -44 6 -52 -9 -6 -9 -8 2 -8 10 0 12 -10 7 -43 -3
-23 -2 -55 2 -71 8 -29 9 -29 85 72 170 226 336 556 408 812 7 25 14 50 15 55
15 47 36 137 40 170 3 22 8 42 12 45 4 3 8 19 8 35 1 17 5 55 9 85 15 106 15
115 15 144 0 16 5 33 12 37 9 6 9 11 0 21 -8 10 -8 33 0 87 8 53 8 91 -1 143
-8 50 -9 74 -1 83 8 9 8 15 0 20 -6 4 -11 21 -11 38 0 38 -7 132 -10 132 -1 0
-3 9 -4 20 -1 11 -8 48 -14 83 -21 109 -23 126 -25 154 0 14 -4 24 -8 21 -5
-2 -8 2 -9 9 -2 43 -44 176 -102 323 -255 653 -769 1179 -1402 1434 -66 27
-158 60 -205 74 -74 23 -105 31 -193 52 -10 2 -28 7 -39 11 -23 7 -52 11 -128
19 -30 4 -62 9 -70 12 -8 3 -25 5 -37 4 -13 -1 -23 3 -23 10 0 9 -3 9 -15 -1
-8 -6 -19 -8 -26 -4 -6 4 -40 6 -75 5 -34 -1 -65 3 -69 9 -8 13 -92 13 -100
-1z"/>
<path d="M1545 1632 c167 -161 1008 -957 1014 -960 3 -1 238 230 521 513 l515
515 -1060 0 -1060 0 70 -68z"/>
<path d="M3554 751 c-18 -11 -35 -24 -38 -30 -4 -5 38 -92 92 -193 91 -171 99
-183 125 -181 35 2 76 33 77 58 0 10 -24 60 -53 110 -30 49 -75 127 -101 173
-26 45 -53 82 -59 82 -7 0 -26 -9 -43 -19z"/>
<path d="M1335 681 c-30 -13 -71 -57 -90 -98 -34 -72 2 -170 78 -210 19 -10
56 -17 89 -17 47 -1 61 3 83 24 98 91 85 238 -27 296 -29 15 -101 18 -133 5z"/>
<path d="M3410 663 c-15 -19 -19 -35 -15 -53 8 -31 23 -50 40 -50 8 0 11 -8 8
-19 -5 -19 89 -245 113 -270 11 -12 19 -12 54 4 67 30 67 30 -4 179 -36 75
-69 136 -75 136 -5 0 -9 14 -9 30 2 66 -71 94 -112 43z"/>
<path d="M1531 395 c-45 -96 -80 -179 -76 -185 7 -12 79 -50 94 -50 6 0 18 15
27 33 9 17 18 33 19 35 1 1 15 -4 31 -13 34 -17 96 -20 127 -4 12 6 31 22 43
36 l21 25 7 -41 c13 -82 108 -140 205 -127 71 10 86 33 55 81 -16 24 -15 25 4
25 27 0 42 28 42 80 0 77 -48 134 -123 145 -50 8 -120 -16 -142 -48 -14 -21
-15 -20 -15 13 0 67 -51 120 -115 120 -13 0 -35 11 -49 25 -14 14 -36 25 -49
25 -21 0 -33 -21 -106 -175z"/>
<path d="M3280 492 c-37 -17 -72 -47 -86 -73 -13 -26 -13 -30 6 -49 24 -24 63
-26 80 -4 19 22 48 36 54 25 4 -5 -11 -20 -31 -32 -60 -37 -83 -67 -83 -108 0
-94 99 -127 183 -61 14 11 34 20 46 20 34 0 71 22 71 43 0 35 -81 207 -108
227 -25 20 -99 27 -132 12z"/>
<path d="M2995 394 c-27 -18 -41 -22 -48 -15 -14 14 -53 14 -80 -1 -12 -6 -40
-11 -62 -10 -70 3 -70 3 -56 -165 7 -81 16 -152 20 -156 5 -4 31 -5 59 -1 61
8 65 16 52 99 -15 89 -13 135 5 135 17 0 21 -14 38 -125 l12 -80 54 1 c29 1
58 7 63 12 8 8 6 36 -6 94 -9 46 -16 93 -16 106 0 32 28 28 36 -5 19 -86 43
-175 48 -180 10 -10 105 19 110 34 6 16 -38 181 -60 225 -32 62 -104 76 -169
32z"/>
<path d="M2140 268 c-13 -68 -23 -139 -24 -158 -1 -34 -1 -34 53 -43 39 -7 56
-6 61 3 4 7 13 55 20 106 12 89 14 94 36 94 27 0 27 3 14 -114 -13 -109 -8
-118 64 -114 l51 3 3 55 c3 54 22 98 22 51 0 -30 25 -71 58 -96 42 -31 146
-32 197 -3 46 27 54 51 29 80 -19 20 -36 20 -107 3 -17 -5 -33 -2 -44 6 -14
12 -5 15 68 19 80 5 84 6 93 32 14 40 -19 116 -64 146 -29 20 -44 23 -88 20
-64 -6 -99 -29 -129 -88 -20 -38 -23 -41 -23 -19 0 78 -44 122 -118 118 -26
-1 -57 3 -69 9 -12 7 -35 12 -51 12 l-29 0 -23 -122z"/>
</g>
</svg>
